<svg width="211" height="26" viewBox="0 0 211 26" fill="none" xmlns="http://www.w3.org/2000/svg">
<path d="M12.2113 23.6479H16.3119L11.0957 15.4468C13.6586 14.3312 15.1661 11.8889 15.1661 9.20544C15.1661 5.52697 12.6636 2.42139 7.89965 2.42139H0V23.6479H3.58801V16.0498H7.38707L12.2113 23.6479ZM3.58801 5.58728H7.53783C10.2515 5.58728 11.5178 7.1853 11.5178 9.23559C11.5178 11.2256 10.1911 12.914 7.53783 12.914H3.58801V5.58728Z" fill="white"/>
<path d="M33.1544 23.6479H36.9234L29.0237 2.42139H25.285L17.4155 23.6479H21.1844L22.9633 18.6126H31.3454L33.1544 23.6479ZM27.1242 6.70288L30.2298 15.5071H24.0487L27.1242 6.70288Z" fill="white"/>
<path d="M74.3475 23.6479H78.1164L70.2168 2.42139H66.478L58.6085 23.6479H62.3774L64.1564 18.6126H72.5384L74.3475 23.6479ZM68.3172 6.70288L71.4228 15.5071H65.2418L68.3172 6.70288Z" fill="white"/>
<path d="M93.243 23.6479H97.3436L92.1274 15.4468C94.6902 14.3312 96.1978 11.8889 96.1978 9.20544C96.1978 5.52697 93.6952 2.42139 88.9313 2.42139H81.0317V23.6479H84.6197V16.0498H88.4187L93.243 23.6479ZM84.6197 5.58728H88.5695C91.2831 5.58728 92.5495 7.1853 92.5495 9.23559C92.5495 11.2256 91.2228 12.914 88.5695 12.914H84.6197V5.58728Z" fill="white"/>
<path fill-rule="evenodd" clip-rule="evenodd" d="M51.2697 2.35205H39.7109V23.6477H51.2697L56.6134 18.4879V7.51213L51.2697 2.35205ZM43.6115 20.516H53.3629V6.11011H43.6115V20.516Z" fill="#F0F5FA"/>
<path fill-rule="evenodd" clip-rule="evenodd" d="M52.7127 22.3958L56.6133 18.7417V7.25956L52.7127 3.60547V5.51554V22.3958Z" fill="#BDCFE4"/>
<rect x="112.319" y="0.260498" width="98.4049" height="25.479" rx="6.45278" fill="#3F3F55"/>
<g clip-path="url(#clip0_768_62388)">
<path fill-rule="evenodd" clip-rule="evenodd" d="M118.772 18.683V6.71313H121.043V16.8117H126.446V18.683H118.772ZM128.638 18.683V6.71313H136.033V8.58449H130.883V11.7203H135.042V13.5916H130.883V16.8117H136.312V18.683H128.638ZM137.408 18.683L141.713 6.71313H144.065L148.37 18.683H146.088L145.033 15.6147H140.728L139.69 18.683H137.408ZM141.427 13.7543H144.716L143.596 10.6327C143.383 9.97552 143.099 8.82547 143.099 8.82547H143.063C143.063 8.82547 142.779 9.97552 142.565 10.6327L141.427 13.7543ZM150.563 18.683V6.71313H154.808C158.651 6.71313 161.16 8.90481 161.16 12.6812C161.16 16.4576 158.651 18.683 154.808 18.683H150.563ZM152.755 16.5707H154.567C157.029 16.5707 158.602 15.1603 158.602 12.5055C158.602 9.8838 156.995 8.47341 154.567 8.47341H152.755V16.5707ZM163.717 18.683V6.71313H171.113V8.58449H165.962V11.7203H170.121V13.5916H165.962V16.8117H171.391V18.683H163.717ZM173.949 18.683V6.71313H178.081C179.317 6.71313 179.918 6.81429 180.447 7.03346C181.736 7.53923 182.566 8.68564 182.566 10.3041C182.566 11.7203 181.789 13.069 180.465 13.5748V13.6085C180.465 13.6085 180.624 13.7939 180.871 14.2323L183.449 18.683H180.889L178.417 14.2154H176.227V18.683H173.949ZM176.507 12.346H178.552C179.768 12.346 180.526 11.5959 180.526 10.3748C180.526 9.58984 180.226 8.96185 179.539 8.68275C179.222 8.54319 178.851 8.47341 178.164 8.47341H176.507V12.346Z" fill="white"/>
<path fill-rule="evenodd" clip-rule="evenodd" d="M190.392 18.683H192.585V6.71313H190.392V18.683Z" fill="#2185FB"/>
<path fill-rule="evenodd" clip-rule="evenodd" d="M200.543 6.71313H194.046V18.683H200.543L203.547 15.7828V9.61352L200.543 6.71313ZM196.239 16.9228H201.72V8.82547H196.239V16.9228Z" fill="#2185FB"/>
<path fill-rule="evenodd" clip-rule="evenodd" d="M201.354 17.9792L203.547 15.9253V9.47138L201.354 7.41748V8.4911V17.9792Z" fill="#116CD8"/>
</g>
<defs>
<clipPath id="clip0_768_62388">
<rect width="85.4993" height="12.5734" fill="white" transform="translate(118.772 6.71313)"/>
</clipPath>
</defs>
</svg>
