<svg width="225" height="41" viewBox="0 0 225 41" fill="none" xmlns="http://www.w3.org/2000/svg">
<rect y="0.072998" width="181.043" height="40.2319" rx="5.10145" fill="#2B3D53"/>
<path d="M22.2136 12.7933C22.2136 12.3092 21.9447 11.7444 21.2992 11.2873C20.4387 10.6149 18.7982 10.1578 17.2922 10.1578C12.0212 10.1578 10.058 13.8152 10.058 18.6828V21.7217C10.058 26.7776 12.0212 30.2468 17.1577 30.2468C18.4486 30.2468 20.3311 29.8165 21.2992 29.0097C21.8909 28.5257 22.1598 27.9609 22.1598 27.4499C22.1598 26.5356 21.4606 25.8901 20.6538 25.8901C20.2504 25.8901 19.9008 26.0784 19.3898 26.3473C18.8251 26.67 18.0452 26.8852 17.1577 26.8852C14.9525 26.8852 13.7692 25.5943 13.7692 21.6679V18.7904C13.7692 15.0254 14.9525 13.4925 17.2922 13.4925C18.2066 13.4925 18.7982 13.7076 19.2285 13.9497C19.847 14.2455 20.116 14.4337 20.5462 14.4337C21.6489 14.4337 22.2136 13.6001 22.2136 12.7933Z" fill="white"/>
<path d="M38.2929 27.6382C37.3516 25.6212 36.3297 23.658 35.1733 21.6679C37.1365 20.888 38.266 19.1938 38.266 16.9348V15.886C38.266 12.3899 36.1683 10.3998 32.0268 10.3998H26.9709C25.9221 10.3998 25.1153 11.2604 25.1153 12.2554V28.3912C25.1153 29.4131 25.9221 30.2468 26.9709 30.2468C27.9929 30.2468 28.8265 29.4131 28.8265 28.3912V22.3672H31.3007C32.6722 24.5993 33.8555 26.8583 34.9044 29.1442C35.2809 29.9779 35.8994 30.2468 36.5448 30.2468C37.7281 30.2468 38.9383 29.1173 38.2929 27.6382ZM34.5547 16.9348C34.5547 18.3332 33.3983 19.0055 31.8386 19.0055H28.8265V13.869H31.9461C33.6404 13.869 34.5547 14.5682 34.5547 15.886V16.9348Z" fill="white"/>
<path d="M55.4531 23.6311V12.0134C55.4531 11.0183 54.6194 10.1578 53.5975 10.1578C52.5756 10.1578 51.7419 11.0183 51.7419 12.0134V23.4698C51.7419 25.1371 51.1233 27.0196 48.434 27.0196C45.7447 27.0196 45.1262 25.1371 45.1262 23.4698V12.0134C45.1262 10.9914 44.2925 10.1578 43.2706 10.1578C42.2487 10.1578 41.4419 10.9914 41.4419 12.0134V23.6311C41.4419 27.2617 43.6202 30.2468 48.434 30.2468C53.2479 30.2468 55.4531 27.2617 55.4531 23.6311Z" fill="white"/>
<path d="M73.1336 28.5525V11.852C73.1336 10.9376 72.3805 10.1578 71.4393 10.1578C70.498 10.1578 69.745 10.9376 69.745 11.852V22.5554L62.8604 11.1259C62.4839 10.4805 61.8654 10.1578 61.0586 10.1578C59.9291 10.1578 59.2568 10.9376 59.2568 11.852V28.5525C59.2568 29.4938 60.0098 30.2468 60.951 30.2468C61.8923 30.2468 62.6453 29.4938 62.6453 28.5525V17.876L69.5568 29.3593C69.9602 29.9779 70.5518 30.2468 71.3586 30.2468C72.4074 30.2468 73.1336 29.4938 73.1336 28.5525Z" fill="white"/>
<path d="M89.1046 12.7933C89.1046 12.3092 88.8357 11.7444 88.1902 11.2873C87.3297 10.6149 85.6892 10.1578 84.1832 10.1578C78.9122 10.1578 76.949 13.8152 76.949 18.6828V21.7217C76.949 26.7776 78.9122 30.2468 84.0487 30.2468C85.3396 30.2468 87.2221 29.8165 88.1902 29.0097C88.7819 28.5257 89.0508 27.9609 89.0508 27.4499C89.0508 26.5356 88.3516 25.8901 87.5448 25.8901C87.1414 25.8901 86.7918 26.0784 86.2808 26.3473C85.7161 26.67 84.9362 26.8852 84.0487 26.8852C81.8435 26.8852 80.6602 25.5943 80.6602 21.6679V18.7904C80.6602 15.0254 81.8435 13.4925 84.1832 13.4925C85.0976 13.4925 85.6892 13.7076 86.1195 13.9497C86.738 14.2455 87.007 14.4337 87.4372 14.4337C88.5399 14.4337 89.1046 13.6001 89.1046 12.7933Z" fill="white"/>
<path d="M106.367 28.3912V12.0134C106.367 11.0183 105.56 10.1578 104.538 10.1578C103.517 10.1578 102.683 11.0183 102.683 12.0134V18.7366H95.7176V12.0134C95.7176 11.0183 94.8839 10.1578 93.8619 10.1578C92.8131 10.1578 92.0063 11.0183 92.0063 12.0134V28.3912C92.0063 29.4131 92.8131 30.2468 93.8619 30.2468C94.8839 30.2468 95.7176 29.4131 95.7176 28.3912V22.0176H102.683V28.3912C102.683 29.4131 103.517 30.2468 104.538 30.2468C105.56 30.2468 106.367 29.4131 106.367 28.3912Z" fill="white"/>
<path d="M124.236 24.9489V24.1959C124.236 22.3941 123.187 20.5922 121.089 19.9199C122.73 19.1938 123.483 17.7685 123.483 16.0473V15.2943C123.483 12.8202 121.923 10.3998 117.512 10.3998H112.43C111.381 10.3998 110.574 11.2604 110.574 12.2554V28.1491C110.574 29.1711 111.381 30.0048 112.43 30.0048H118.185C122.649 30.0048 124.236 27.7458 124.236 24.9489ZM119.771 16.5045C119.771 18.0643 118.427 18.5753 116.786 18.5753H114.285V13.8421H117.459C118.992 13.8421 119.771 14.6489 119.771 15.8322V16.5045ZM120.551 24.4648C120.551 25.6481 119.852 26.5894 118.104 26.5894H114.285V21.8293H117.916C119.583 21.8293 120.551 22.6899 120.551 23.927V24.4648Z" fill="white"/>
<path d="M140.768 27.9878C139.504 22.3672 137.837 17.1499 135.766 12.0672C135.12 10.4536 134.152 10.1309 133.319 10.1309C132.512 10.1309 131.597 10.4536 130.952 12.0672C128.908 17.1499 127.214 22.3672 125.923 27.9878C125.627 29.3862 126.676 30.2468 127.698 30.2468C128.451 30.2468 129.204 29.7896 129.446 28.7946C129.661 27.8264 129.903 26.8583 130.145 25.9439H136.438C136.707 26.8583 136.949 27.8264 137.164 28.7946C137.379 29.8165 138.159 30.2468 138.939 30.2468C140.015 30.2468 141.091 29.3862 140.768 27.9878ZM135.551 22.6361H131.033C131.732 20.3502 132.485 18.145 133.292 15.9666C134.125 18.145 134.878 20.3502 135.551 22.6361Z" fill="white"/>
<path d="M156.2 23.9001C156.2 22.0176 155.5 20.5922 153.994 19.651C152.811 18.8711 150.794 18.5753 149.1 18.145C147.298 17.6878 146.464 17.2575 146.464 15.8591C146.464 14.4068 147.675 13.5463 149.772 13.5463C150.606 13.5463 151.171 13.6269 151.628 13.7345C152.462 13.9228 152.892 14.2186 153.403 14.2186C154.505 14.2186 155.124 13.3311 155.124 12.4437C155.124 11.7444 154.721 11.0721 153.86 10.7763C152.488 10.3191 151.036 10.1578 149.476 10.1578C145.792 10.1578 142.78 12.3361 142.78 16.3431C142.78 18.5753 143.775 19.8392 145.093 20.5922C146.33 21.2914 148.508 21.6411 149.826 22.0176C151.924 22.5823 152.488 23.1471 152.488 24.3035C152.488 25.8901 151.332 26.8852 148.589 26.8852C147.621 26.8852 146.922 26.7776 146.357 26.6431C145.308 26.4011 144.824 26.0515 144.232 26.0515C143.237 26.0515 142.619 26.8852 142.619 27.7726C142.619 28.4988 143.022 29.198 143.883 29.4938C145.416 30.0585 147.083 30.2468 148.939 30.2468C153.08 30.2468 156.2 28.1491 156.2 23.9001Z" fill="white"/>
<path d="M171.554 28.2298C171.554 27.2617 170.774 26.4818 169.806 26.4818H163.029V21.91H168.838C169.779 21.91 170.559 21.157 170.559 20.2157C170.559 19.2745 169.779 18.4946 168.838 18.4946H163.029V13.9228H169.429C170.424 13.9228 171.204 13.1429 171.204 12.1747C171.204 11.2066 170.424 10.3998 169.429 10.3998H161.066C160.097 10.3998 159.318 11.2066 159.318 12.1747V28.2298C159.318 29.2249 160.097 30.0048 161.066 30.0048H169.806C170.774 30.0048 171.554 29.2249 171.554 28.2298Z" fill="white"/>
<rect x="189.043" y="0.072998" width="11" height="11" rx="5.10145" fill="#2185FB"/>
<rect x="208.043" y="0.072998" width="16" height="16" rx="5.10145" fill="#2185FB"/>
<rect x="189.043" y="24.073" width="16" height="16" rx="5.10145" fill="#2185FB"/>
<rect x="213.043" y="24.073" width="8" height="8" rx="4" fill="#2185FB"/>
</svg>
