<svg width="211" height="26" viewBox="0 0 211 26" fill="none" xmlns="http://www.w3.org/2000/svg">
<path d="M12.2113 23.3874H16.3119L11.0957 15.1863C13.6586 14.0707 15.1661 11.6284 15.1661 8.94494C15.1661 5.26648 12.6636 2.16089 7.89965 2.16089H0V23.3874H3.58801V15.7893H7.38707L12.2113 23.3874ZM3.58801 5.32678H7.53783C10.2515 5.32678 11.5178 6.9248 11.5178 8.97509C11.5178 10.9651 10.1911 12.6536 7.53783 12.6536H3.58801V5.32678Z" fill="#2F80ED"/>
<path d="M33.1544 23.3874H36.9234L29.0237 2.16089H25.285L17.4155 23.3874H21.1844L22.9633 18.3521H31.3454L33.1544 23.3874ZM27.1242 6.44238L30.2298 15.2466H24.0487L27.1242 6.44238Z" fill="#2F80ED"/>
<path d="M74.3475 23.3874H78.1164L70.2168 2.16089H66.478L58.6085 23.3874H62.3774L64.1564 18.3521H72.5384L74.3475 23.3874ZM68.3172 6.44238L71.4228 15.2466H65.2418L68.3172 6.44238Z" fill="#2F80ED"/>
<path d="M93.243 23.3874H97.3436L92.1274 15.1863C94.6902 14.0707 96.1978 11.6284 96.1978 8.94494C96.1978 5.26648 93.6952 2.16089 88.9313 2.16089H81.0317V23.3874H84.6197V15.7893H88.4187L93.243 23.3874ZM84.6197 5.32678H88.5695C91.2831 5.32678 92.5495 6.9248 92.5495 8.97509C92.5495 10.9651 91.2228 12.6536 88.5695 12.6536H84.6197V5.32678Z" fill="#2F80ED"/>
<path fill-rule="evenodd" clip-rule="evenodd" d="M51.2697 2.09155H39.7109V23.3872H51.2697L56.6134 18.2274V7.25163L51.2697 2.09155ZM43.6115 20.2555H53.3629V5.84961H43.6115V20.2555Z" fill="#2F80ED"/>
<path fill-rule="evenodd" clip-rule="evenodd" d="M52.7127 22.1353L56.6133 18.4812V6.99906L52.7127 3.34497V5.25504V22.1353Z" fill="#2D9CDB"/>
<rect x="112.319" width="98.4049" height="25.479" rx="6.45278" fill="#3F3F55"/>
<g clip-path="url(#clip0_768_62388)">
<path fill-rule="evenodd" clip-rule="evenodd" d="M118.772 18.4225V6.45264H121.043V16.5512H126.446V18.4225H118.772ZM128.638 18.4225V6.45264H136.033V8.32399H130.883V11.4598H135.042V13.3311H130.883V16.5512H136.312V18.4225H128.638ZM137.408 18.4225L141.713 6.45264H144.065L148.37 18.4225H146.088L145.033 15.3542H140.728L139.69 18.4225H137.408ZM141.427 13.4938H144.716L143.596 10.3722C143.383 9.71502 143.099 8.56497 143.099 8.56497H143.063C143.063 8.56497 142.779 9.71502 142.565 10.3722L141.427 13.4938ZM150.563 18.4225V6.45264H154.808C158.651 6.45264 161.16 8.64431 161.16 12.4207C161.16 16.1972 158.651 18.4225 154.808 18.4225H150.563ZM152.755 16.3102H154.567C157.029 16.3102 158.602 14.8998 158.602 12.245C158.602 9.62331 156.995 8.21292 154.567 8.21292H152.755V16.3102ZM163.717 18.4225V6.45264H171.113V8.32399H165.962V11.4598H170.121V13.3311H165.962V16.5512H171.391V18.4225H163.717ZM173.949 18.4225V6.45264H178.081C179.317 6.45264 179.918 6.55379 180.447 6.77296C181.736 7.27873 182.566 8.42514 182.566 10.0436C182.566 11.4598 181.789 12.8085 180.465 13.3143V13.348C180.465 13.348 180.624 13.5334 180.871 13.9718L183.449 18.4225H180.889L178.417 13.9549H176.227V18.4225H173.949ZM176.507 12.0855H178.552C179.768 12.0855 180.526 11.3354 180.526 10.1143C180.526 9.32935 180.226 8.70135 179.539 8.42225C179.222 8.28269 178.851 8.21292 178.164 8.21292H176.507V12.0855Z" fill="white"/>
<path fill-rule="evenodd" clip-rule="evenodd" d="M190.392 18.4225H192.585V6.45264H190.392V18.4225Z" fill="#2185FB"/>
<path fill-rule="evenodd" clip-rule="evenodd" d="M200.543 6.45264H194.046V18.4225H200.543L203.547 15.5223V9.35302L200.543 6.45264ZM196.239 16.6623H201.72V8.56497H196.239V16.6623Z" fill="#2185FB"/>
<path fill-rule="evenodd" clip-rule="evenodd" d="M201.354 17.7187L203.547 15.6648V9.21088L201.354 7.15698V8.2306V17.7187Z" fill="#116CD8"/>
</g>
<defs>
<clipPath id="clip0_768_62388">
<rect width="85.4993" height="12.5734" fill="white" transform="translate(118.772 6.45264)"/>
</clipPath>
</defs>
</svg>
