<svg width="25" height="24" viewBox="0 0 25 24" fill="none" xmlns="http://www.w3.org/2000/svg">
<g clip-path="url(#clip0_585_42965)">
<path d="M10.7106 2.62536C10.4294 2.0275 9.98385 1.52201 9.42606 1.16795C8.86827 0.813882 8.22123 0.625866 7.56055 0.625866C6.89987 0.625866 6.25284 0.813882 5.69504 1.16795C5.13725 1.52201 4.69173 2.0275 4.41055 2.62536H1.51055C1.11273 2.62536 0.731196 2.7834 0.449891 3.0647C0.168587 3.346 0.0105515 3.72754 0.0105515 4.12536H0.0105515C0.0105515 4.52318 0.168587 4.90472 0.449891 5.18602C0.731196 5.46733 1.11273 5.62536 1.51055 5.62536H4.40555C4.68673 6.22322 5.13225 6.72871 5.69004 7.08277C6.24784 7.43684 6.89487 7.62485 7.55555 7.62485C8.21623 7.62485 8.86327 7.43684 9.42106 7.08277C9.97885 6.72871 10.4244 6.22322 10.7056 5.62536H22.5106C22.9084 5.62536 23.2899 5.46733 23.5712 5.18602C23.8525 4.90472 24.0106 4.52318 24.0106 4.12536C24.0106 3.72754 23.8525 3.346 23.5712 3.0647C23.2899 2.7834 22.9084 2.62536 22.5106 2.62536H10.7106Z" fill="#2185FB"/>
<path d="M16.4656 8.49937C15.8049 8.50055 15.1582 8.68909 14.6005 9.04311C14.0427 9.39713 13.5968 9.90209 13.3146 10.4994H1.51055C1.11273 10.4994 0.731196 10.6574 0.449891 10.9387C0.168587 11.22 0.0105515 11.6016 0.0105515 11.9994H0.0105515C0.0105515 12.3972 0.168587 12.7787 0.449891 13.06C0.731196 13.3413 1.11273 13.4994 1.51055 13.4994H13.3106C13.5917 14.0972 14.0373 14.6027 14.595 14.9568C15.1528 15.3109 15.7999 15.4989 16.4606 15.4989C17.1212 15.4989 17.7683 15.3109 18.3261 14.9568C18.8839 14.6027 19.3294 14.0972 19.6106 13.4994H22.5106C22.9084 13.4994 23.2899 13.3413 23.5712 13.06C23.8525 12.7787 24.0106 12.3972 24.0106 11.9994C24.0106 11.6016 23.8525 11.22 23.5712 10.9387C23.2899 10.6574 22.9084 10.4994 22.5106 10.4994H19.6156C19.3334 9.90224 18.8876 9.39738 18.3301 9.04338C17.7725 8.68937 17.126 8.50074 16.4656 8.49937Z" fill="#2185FB"/>
<path d="M7.55555 16.3744C6.89511 16.3758 6.24859 16.5644 5.69103 16.9184C5.13347 17.2724 4.68773 17.7773 4.40555 18.3744H1.51055C1.11273 18.3744 0.731196 18.5324 0.449891 18.8137C0.168587 19.095 0.0105515 19.4766 0.0105515 19.8744H0.0105515C0.0105515 20.2722 0.168587 20.6537 0.449891 20.935C0.731196 21.2163 1.11273 21.3744 1.51055 21.3744H4.40555C4.68673 21.9722 5.13225 22.4777 5.69004 22.8318C6.24784 23.1859 6.89487 23.3739 7.55555 23.3739C8.21623 23.3739 8.86327 23.1859 9.42106 22.8318C9.97885 22.4777 10.4244 21.9722 10.7056 21.3744H22.5106C22.9084 21.3744 23.2899 21.2163 23.5712 20.935C23.8525 20.6537 24.0106 20.2722 24.0106 19.8744C24.0106 19.4766 23.8525 19.095 23.5712 18.8137C23.2899 18.5324 22.9084 18.3744 22.5106 18.3744H10.7106C10.428 17.7765 9.98149 17.2711 9.42296 16.9171C8.86443 16.563 8.21685 16.3748 7.55555 16.3744Z" fill="#2185FB"/>
</g>
<defs>
<clipPath id="clip0_585_42965">
<rect width="24" height="24" fill="white" transform="translate(0.0105591)"/>
</clipPath>
</defs>
</svg>
