<svg width="25" height="24" viewBox="0 0 25 24" fill="none" xmlns="http://www.w3.org/2000/svg">
<g clip-path="url(#clip0_585_42971)">
<path d="M6.86257 23.4374C6.09937 23.434 5.35686 23.1889 4.74157 22.7374C4.11278 22.295 3.64358 21.6615 3.40377 20.9311C3.16396 20.2007 3.16634 19.4123 3.41057 18.6834L4.58057 15.0644L1.50057 12.8124C0.883016 12.3612 0.423991 11.7262 0.189175 10.9983C-0.0456415 10.2704 -0.0442176 9.48691 0.193243 8.75988C0.430704 8.03285 0.892033 7.39955 1.51123 6.9506C2.13042 6.50165 2.87575 6.26005 3.64057 6.26036H7.41057L8.55557 2.69036C8.79056 1.95929 9.25152 1.32168 9.87205 0.869336C10.4926 0.416996 11.2407 0.173275 12.0086 0.173275C12.7765 0.173275 13.5246 0.416996 14.1451 0.869336C14.7656 1.32168 15.2266 1.95929 15.4616 2.69036L16.6106 6.26036H20.3806C21.1453 6.26026 21.8905 6.50201 22.5095 6.95104C23.1286 7.40007 23.5897 8.03337 23.8271 8.76035C24.0644 9.48733 24.0657 10.2708 23.8309 10.9985C23.5961 11.7263 23.1371 12.3612 22.5196 12.8124L19.4406 15.0644L20.6106 18.6834C20.8465 19.4134 20.8447 20.1994 20.6056 20.9284C20.3665 21.6573 19.9024 22.2917 19.28 22.7402C18.6575 23.1886 17.9089 23.4282 17.1417 23.4242C16.3746 23.4203 15.6284 23.1732 15.0106 22.7184L12.0106 20.5124L9.01057 22.7194C8.38983 23.1823 7.63695 23.434 6.86257 23.4374ZM3.64057 9.26036C3.50858 9.26034 3.37996 9.30205 3.27309 9.37952C3.16622 9.45699 3.08658 9.56626 3.04554 9.69172C3.00449 9.81717 3.00416 9.95238 3.04457 10.078C3.08499 10.2037 3.16409 10.3134 3.27057 10.3914L7.22657 13.2824C7.48131 13.4686 7.67081 13.7305 7.76812 14.0307C7.86543 14.3308 7.86559 14.6541 7.76857 14.9544L6.26857 19.6044C6.22695 19.7305 6.22652 19.8666 6.26736 19.993C6.30819 20.1194 6.38817 20.2295 6.49572 20.3074C6.60327 20.3854 6.73283 20.4271 6.86565 20.4265C6.99847 20.426 7.12767 20.3832 7.23457 20.3044L11.1236 17.4434C11.3812 17.2538 11.6927 17.1515 12.0126 17.1515C12.3324 17.1515 12.6439 17.2538 12.9016 17.4434L16.7906 20.3034C16.8973 20.3829 17.0267 20.4263 17.1599 20.4272C17.293 20.4281 17.423 20.3864 17.5308 20.3083C17.6386 20.2302 17.7187 20.1197 17.7593 19.9929C17.7999 19.866 17.7989 19.7296 17.7566 19.6034L16.2566 14.9534C16.1596 14.6531 16.1597 14.3298 16.257 14.0297C16.3543 13.7295 16.5438 13.4676 16.7986 13.2814L20.7536 10.3904C20.86 10.3124 20.9391 10.2028 20.9795 10.0773C21.0199 9.95172 21.0197 9.81659 20.9788 9.69119C20.9379 9.56579 20.8584 9.45651 20.7517 9.37896C20.645 9.30141 20.5165 9.25955 20.3846 9.25936H15.5106C15.1929 9.25928 14.8834 9.15833 14.6268 8.97106C14.3701 8.7838 14.1796 8.51988 14.0826 8.21736L12.6106 3.60636C12.57 3.48016 12.4905 3.37008 12.3834 3.29199C12.2763 3.2139 12.1471 3.17182 12.0146 3.17182C11.882 3.17182 11.7529 3.2139 11.6458 3.29199C11.5387 3.37008 11.4591 3.48016 11.4186 3.60636L9.93557 8.21836C9.83873 8.5204 9.64863 8.78396 9.39259 8.97118C9.13655 9.1584 8.82776 9.25964 8.51057 9.26036H3.64057Z" fill="#2185FB"/>
</g>
<defs>
<clipPath id="clip0_585_42971">
<rect width="24" height="24" fill="white" transform="translate(0.0105591)"/>
</clipPath>
</defs>
</svg>
