<svg width="48" height="49" viewBox="0 0 48 49" fill="none" xmlns="http://www.w3.org/2000/svg">
<g id="007-handshake">
<path id="Vector" d="M47.5817 13.8336L37.7555 4.12941C37.298 3.67761 36.5921 3.59349 36.0413 3.92545L28.4546 8.49628C27.0641 9.121 25.8044 9.97585 24.7096 11.038L24.1172 11.6128L11.9037 4.16533C11.3494 3.82737 10.6358 3.91261 10.1768 4.37172L0.41202 14.1364C-0.0245917 14.5729 -0.125399 15.2432 0.163425 15.7889L5.6433 26.1446L5.0543 26.7336C3.33074 28.4572 3.33074 31.2617 5.0543 32.9853C5.87754 33.8085 6.94694 34.2373 8.02769 34.2743C8.06463 35.3549 8.49365 36.4246 9.3167 37.2477C10.1399 38.0708 11.2095 38.4998 12.2903 38.5368C12.4237 42.3723 17.0845 44.2409 19.8309 41.5102L20.3622 40.9789L22.8323 43.4491C23.6522 44.2691 24.7424 44.7207 25.902 44.7207C28.1901 44.7648 30.1879 42.805 30.2368 40.5634C31.2863 40.5193 32.323 40.0978 33.1225 39.2983C33.8789 38.5419 34.3209 37.5554 34.385 36.4968C35.3836 36.4533 36.3694 36.0515 37.1302 35.2906C38.4631 34.0031 38.7265 31.8064 37.7579 30.239L40.5648 27.5845C41.9072 26.3149 42.9463 24.8077 43.6543 23.103L47.8259 15.5116C48.129 14.9608 48.0291 14.2756 47.5817 13.8336ZM7.04353 28.7229L10.8598 24.9065C11.4582 24.283 12.5347 24.283 13.1331 24.9066L13.4908 25.2643C13.9202 25.6938 13.9202 26.3926 13.4908 26.8221L13.1339 27.179C13.1336 27.1792 13.1333 27.1795 13.133 27.1798L9.3167 30.9961C8.71843 31.6196 7.64181 31.6197 7.04353 30.9961C6.41684 30.3693 6.41674 29.3496 7.04353 28.7229ZM11.3059 32.9854L15.1227 29.1687C15.7495 28.5423 16.769 28.5425 17.3955 29.169L17.7533 29.5269C18.1806 29.9369 18.1805 30.6746 17.7533 31.0846L13.5792 35.2586C12.9809 35.8821 11.9041 35.8821 11.3059 35.2586C10.6792 34.6318 10.6792 33.6121 11.3059 32.9854ZM15.5685 39.5211C14.9418 38.8943 14.9418 37.8746 15.5685 37.2479L19.3848 33.4315C19.9831 32.808 21.0597 32.808 21.658 33.4315C22.2847 34.0583 22.2847 35.078 21.658 35.7048L17.8417 39.5211C17.2149 40.1479 16.1952 40.1477 15.5685 39.5211ZM35.141 33.3016C34.6238 33.8187 33.7824 33.8187 33.2652 33.3016C33.2495 33.2859 33.2326 33.2723 33.2164 33.2576C32.6879 32.6249 31.7163 32.5698 31.1333 33.159C30.584 33.7084 30.5841 34.5989 31.1333 35.1483C31.7261 35.7171 31.7261 36.7404 31.1333 37.3092C30.5376 37.905 29.5681 37.905 28.9723 37.3092C28.4231 36.7599 27.5324 36.7599 26.9831 37.3092C26.9829 37.3094 26.9828 37.3096 26.9826 37.3097C26.9826 37.3097 26.9826 37.3097 26.9825 37.3098C26.4333 37.8592 26.4332 38.7497 26.9825 39.2991C27.5783 39.8949 27.5783 40.8643 26.9825 41.46C26.4137 42.0528 25.3903 42.0528 24.8215 41.46L22.3513 38.9898L23.6472 37.6938C26.3085 35.054 24.5874 30.4398 20.8857 30.1654C20.851 29.1723 20.4487 28.2436 19.7426 27.5375L19.3848 27.1796C18.6151 26.4099 17.6298 25.985 16.6215 25.9028C16.5876 24.9476 16.2077 24.0025 15.4801 23.2749L15.1224 22.9172C13.3987 21.1936 10.5944 21.1937 8.87081 22.9172L7.7248 24.0632L3.13578 15.3911L11.3838 7.14312L22.0319 13.6359L18.6447 16.9222C16.758 18.6718 16.7315 21.888 18.5892 23.6683C20.3504 25.5039 23.5196 25.5039 25.2807 23.6683L26.3323 22.6169L34.8323 31.1169C34.835 31.1197 34.8379 31.1224 34.8407 31.1253L35.1411 31.4257C35.6581 31.943 35.6581 32.7845 35.141 33.3016ZM41.1511 21.8174C41.1251 21.8647 41.1019 21.9135 41.0815 21.9634C40.5254 23.3259 39.7013 24.5295 38.632 25.5407L35.8579 28.1641L27.3268 19.6331C26.7776 19.0837 25.8869 19.0837 25.3376 19.6331L23.2915 21.6792C22.5774 22.4234 21.2925 22.4234 20.5783 21.6792C19.8246 20.9562 19.8357 19.6534 20.6022 18.9426L26.6686 13.057C27.5451 12.2066 28.5561 11.5256 29.6735 11.033C29.728 11.009 29.781 10.9815 29.8319 10.9507L36.5565 6.89931L44.8487 15.0886L41.1511 21.8174Z" fill="#2185FB"/>
</g>
</svg>
