<svg width="48" height="49" viewBox="0 0 48 49" fill="none" xmlns="http://www.w3.org/2000/svg">
<g id="006-graphs" clip-path="url(#clip0_6053_125596)">
<g id="Group">
<path id="Vector" d="M17.9502 18.7712H8.64744C7.87069 18.7712 7.24097 19.401 7.24097 20.1777V38.3001C7.24097 39.0768 7.87069 39.7065 8.64744 39.7065H17.9502C18.727 39.7065 19.3567 39.0768 19.3567 38.3001V20.1777C19.3566 19.401 18.727 18.7712 17.9502 18.7712ZM10.0539 27.625H16.5438V30.8529H10.0539V27.625ZM16.5437 21.5842V24.8121H10.0538V21.5842H16.5437ZM10.0539 36.8936V33.6657H16.5438V36.8936H10.0539Z" fill="#2185FB"/>
<path id="Vector_2" d="M43.3328 0.227539H4.66715C2.09368 0.227539 0 2.32122 0 4.89479V43.5504C0 46.1239 2.09368 48.2176 4.66715 48.2176H43.3327C45.9062 48.2176 47.9999 46.1239 47.9999 43.5504V4.89479C48 2.32122 45.9063 0.227539 43.3328 0.227539ZM4.66715 3.04049H43.3327C44.3551 3.04049 45.187 3.87228 45.187 4.89469V11.314H2.81295V4.89479C2.81295 3.87228 3.64474 3.04049 4.66715 3.04049ZM43.3328 45.4046H4.66715C3.64474 45.4046 2.81295 44.5729 2.81295 43.5504V14.1271H45.187V43.5504C45.187 44.5729 44.3552 45.4046 43.3328 45.4046Z" fill="#2185FB"/>
<path id="Vector_3" d="M7.06228 8.67593C7.84437 8.67593 8.47832 8.04236 8.47832 7.26073C8.40378 5.38356 5.7205 5.38403 5.64624 7.26073C5.64624 8.04236 6.28019 8.67593 7.06228 8.67593Z" fill="#2185FB"/>
<path id="Vector_4" d="M12.8201 8.67614C13.6022 8.67614 14.2361 8.04257 14.2361 7.26094C14.1616 5.38377 11.4783 5.38433 11.4041 7.26094C11.4041 8.04257 12.038 8.67614 12.8201 8.67614Z" fill="#2185FB"/>
<path id="Vector_5" d="M18.839 8.67593C19.6211 8.67593 20.2551 8.04236 20.2551 7.26073C20.1805 5.38356 17.4972 5.38403 17.423 7.26073C17.423 8.04236 18.0569 8.67593 18.839 8.67593Z" fill="#2185FB"/>
<path id="Vector_6" d="M36.8213 17.9534C35.8208 17.7745 34.8121 17.9956 33.9816 18.5766C33.6173 18.8315 33.3067 19.1422 33.058 19.495L29.6841 18.8909C29.373 17.4218 28.1987 16.2103 26.6312 15.9295C25.6308 15.7508 24.622 15.9717 23.7913 16.5528C22.9639 17.1316 22.4127 17.9982 22.239 18.9929C21.8809 21.0447 23.2621 23.0134 25.318 23.3816C26.7991 23.6714 28.4159 22.9533 29.1987 21.6617L32.4188 22.2382C32.5137 22.8487 32.7562 23.426 33.1192 23.919L30.9471 26.9506C30.8879 26.9371 30.8282 26.9246 30.7678 26.9137C28.7688 26.5129 26.685 27.961 26.3757 29.9772C26.0176 32.029 27.3988 33.9977 29.4547 34.3659C29.8272 34.4324 30.2007 34.4444 30.5731 34.4005L32.731 37.5248C31.3824 39.7407 32.7781 42.7593 35.3438 43.1819C36.3321 43.3605 37.3526 43.142 38.1837 42.5586C40.9338 40.6495 39.9486 36.31 36.6569 35.7297C36.0836 35.6272 35.5082 35.6567 34.9647 35.8091L33.0526 33.0404C33.4588 32.545 33.7337 31.9513 33.8468 31.3026C34.0205 30.3077 33.7843 29.3331 33.2616 28.5503L35.5141 25.4065C36.5006 25.5835 37.5186 25.3644 38.3478 24.7823C41.0986 22.8724 40.1126 18.5339 36.8213 17.9534ZM26.5454 20.4535C26.3323 20.6025 26.0729 20.6594 25.8137 20.6127C24.9682 20.4688 24.6952 19.3483 25.4037 18.8578C25.617 18.7081 25.8808 18.6522 26.1354 18.6986C26.9809 18.8426 27.2539 19.963 26.5454 20.4535ZM29.147 30.4611C29.191 30.2088 29.3308 29.989 29.5406 29.8422C29.7538 29.6924 30.0177 29.6366 30.2722 29.683C31.1177 29.8269 31.3908 30.9474 30.6823 31.4379C30.6628 31.4515 30.6426 31.4635 30.6224 31.4755C30.5719 31.4965 30.5222 31.5205 30.4735 31.5478C30.3093 31.611 30.1301 31.6295 29.9506 31.5971C29.4148 31.5012 29.0543 30.9916 29.147 30.4611ZM35.9851 38.4831C36.0436 38.4831 36.1025 38.4883 36.1614 38.4989C36.6972 38.5947 37.0577 39.1044 36.9651 39.6349C36.921 39.8872 36.7812 40.107 36.5715 40.2539C36.3583 40.4029 36.0989 40.4598 35.8397 40.4131C35.3039 40.3173 34.9434 39.8075 35.0361 39.277C35.0801 39.0248 35.2199 38.805 35.4297 38.6582C35.5943 38.5431 35.7868 38.4831 35.9851 38.4831ZM37.1292 21.8585C37.0851 22.1107 36.9453 22.3306 36.7355 22.4774C36.5224 22.6264 36.2626 22.6832 36.0039 22.6366C36.0038 22.6366 36.0038 22.6366 36.0037 22.6366C35.937 22.6247 35.8718 22.6063 35.8097 22.5815C35.765 22.5638 35.7226 22.5422 35.6818 22.5188C35.6784 22.5168 35.6748 22.5149 35.6713 22.513C35.3243 22.3073 35.1299 21.9042 35.2003 21.5007C35.2444 21.2484 35.3842 21.0286 35.5941 20.8817C35.8073 20.7319 36.0711 20.6761 36.3256 20.7225C36.8613 20.8183 37.2218 21.3279 37.1292 21.8585Z" fill="#2185FB"/>
</g>
</g>
<defs>
<clipPath id="clip0_6053_125596">
<rect width="48" height="48" fill="white" transform="translate(0 0.222656)"/>
</clipPath>
</defs>
</svg>
