<svg width="48" height="49" viewBox="0 0 48 49" fill="none" xmlns="http://www.w3.org/2000/svg">
<g id="002-worldwide" clip-path="url(#clip0_6053_125592)">
<path id="Vector" d="M45.2678 29.4417H41.1396C41.5841 28.3051 41.8205 27.4794 41.8714 27.2952C43.4793 22.2514 43.1102 16.8524 40.8033 11.6802C37.7846 4.46684 29.7217 0.190179 22.1893 0.227184C22.1506 0.224748 22.1118 0.224561 22.0728 0.225404C22.0666 0.225498 22.0604 0.225123 22.0543 0.225311C22.0467 0.225592 22.0391 0.225592 22.0315 0.22606C10.9473 0.0131172 1.11458 9.82254 1.33052 20.9388C1.30438 31.2609 9.14897 40.0762 19.3903 41.5316V46.8174C19.3903 47.5935 20.0195 48.2227 20.7955 48.2227H45.2678C46.0439 48.2227 46.6731 47.5935 46.6731 46.8174V30.8469C46.6731 30.0708 46.0439 29.4417 45.2678 29.4417ZM33.0317 36.6566C26.0556 36.6566 23.5643 34.0066 22.6792 32.2521C27.0716 32.252 39.1847 32.2524 43.3842 32.2521C42.4991 34.0066 40.0078 36.6566 33.0317 36.6566ZM29.816 29.4417V27.2889H35.779V29.4417H29.816ZM37.1843 24.4783H34.1542C34.1372 23.7599 34.1084 23.0521 34.065 22.3578H39.9889C39.8829 23.749 39.616 25.1236 39.1856 26.4667L39.1667 26.5309C39.1638 26.5417 38.9756 27.231 38.5895 28.2418V25.8836C38.5895 25.1075 37.9603 24.4783 37.1843 24.4783ZM31.3433 24.4783H28.4108C27.6347 24.4783 27.0055 25.1075 27.0055 25.8836V29.4416H23.5023L23.5038 22.3578H31.2448C31.2939 23.0848 31.3256 23.7937 31.3433 24.4783ZM23.5043 19.5474L23.5075 4.04442C24.4005 4.71313 25.4537 5.69372 26.459 7.04276C29.1256 10.6213 30.4054 15.2246 30.9692 19.5475H23.5043V19.5474ZM20.6971 4.24415L20.6939 19.5473H13.4667C13.7094 14.5331 15.2491 10.2687 18.0544 6.85577C18.9799 5.72978 19.9122 4.87024 20.6971 4.24415ZM20.6932 22.3579L20.6917 29.4469C19.9643 29.5002 19.3903 30.1059 19.3903 30.8469V36.3959C16.7348 33.6635 13.8208 29.1554 13.4677 22.3579H20.6932ZM38.2365 12.8251C39.226 15.0436 39.8093 17.3042 39.9845 19.5474H33.8075C33.5207 17.1786 33.0662 14.9738 32.4437 12.9554C31.2897 9.28685 29.7516 6.35681 27.4151 3.80299C28.3001 4.05528 29.1822 4.36837 30.0563 4.74704C33.7148 6.33133 36.6199 9.2002 38.2365 12.8251ZM12.2511 5.9684C13.7628 4.97572 15.3828 4.23544 17.0695 3.74669C16.712 4.11365 16.3487 4.51255 15.9858 4.94734C13.6881 7.70004 10.9766 12.4168 10.6534 19.5474H4.19939C4.63717 14.0393 7.57593 9.03831 12.2511 5.9684ZM4.19517 22.3579H10.6539C11.007 29.9611 14.2274 35.0607 17.2181 38.1935C10.0839 36.0996 4.78173 29.7958 4.19517 22.3579ZM22.2008 45.4121V36.1526C23.1154 36.9797 24.2174 37.6603 25.4904 38.1833V40.0749C25.5647 41.9394 28.2274 41.938 28.3009 40.0749V39.0241C31.1537 39.6256 35.1168 39.6149 37.9482 38.9863V40.0748C38.0225 41.9393 40.6852 41.9379 40.7588 40.0748V38.1063C41.9538 37.5942 42.9925 36.9393 43.8626 36.1525V45.412H22.2008V45.4121Z" fill="#2185FB"/>
</g>
<defs>
<clipPath id="clip0_6053_125592">
<rect width="48" height="48" fill="white" transform="translate(0 0.222656)"/>
</clipPath>
</defs>
</svg>
