<svg width="50" height="50" viewBox="0 0 50 50" fill="none" xmlns="http://www.w3.org/2000/svg">
<g id="g1857">
<g id="g1859">
<path id="path1861" d="M12.866 40.9243L14.8969 42.9551" stroke="white" stroke-width="2.6" stroke-miterlimit="10" stroke-linecap="round" stroke-linejoin="round"/>
</g>
<g id="g1863">
<path id="path1865" d="M9.29837 37.3566L7.26756 35.3257" stroke="white" stroke-width="2.6" stroke-miterlimit="10" stroke-linecap="round" stroke-linejoin="round"/>
</g>
<g id="g1867">
<path id="path1869" d="M37.1339 40.9243L35.103 42.9551" stroke="white" stroke-width="2.6" stroke-miterlimit="10" stroke-linecap="round" stroke-linejoin="round"/>
</g>
<g id="g1871">
<path id="path1873" d="M40.7015 37.3566L42.7323 35.3257" stroke="white" stroke-width="2.6" stroke-miterlimit="10" stroke-linecap="round" stroke-linejoin="round"/>
</g>
<g id="g1875">
<path id="path1877" d="M37.1339 9.52105L35.103 7.49023" stroke="white" stroke-width="2.6" stroke-miterlimit="10" stroke-linecap="round" stroke-linejoin="round"/>
</g>
<g id="g1879">
<path id="path1881" d="M40.7015 13.0886L42.7323 15.1195" stroke="white" stroke-width="2.6" stroke-miterlimit="10" stroke-linecap="round" stroke-linejoin="round"/>
</g>
<g id="g1891">
<path id="path1893" d="M18.9245 16.0114C19.7514 14.6365 20.2269 13.0264 20.2269 11.3052C20.2269 6.25465 16.1326 2.1604 11.0821 2.1604C6.03165 2.1604 1.9374 6.25465 1.9374 11.3052C1.9374 16.3557 6.03165 20.4499 11.0821 20.4499C12.8034 20.4499 14.4136 19.9743 15.7886 19.1474" stroke="white" stroke-width="2.6" stroke-miterlimit="10" stroke-linecap="round" stroke-linejoin="round"/>
</g>
<g id="g1895">
<path id="path1897" d="M18.9246 34.4341C19.7515 35.809 20.227 37.4191 20.227 39.1404C20.227 44.1909 16.1327 48.2851 11.0822 48.2851C6.03173 48.2851 1.93748 44.1909 1.93748 39.1404C1.93748 34.0899 6.03173 29.9956 11.0822 29.9956C12.8035 29.9956 14.4137 30.4712 15.7887 31.2981" stroke="white" stroke-width="2.6" stroke-miterlimit="10" stroke-linecap="round" stroke-linejoin="round"/>
</g>
<g id="g1899">
<path id="path1901" d="M31.0753 34.4341C30.2484 35.809 29.7729 37.4191 29.7729 39.1404C29.7729 44.1909 33.8672 48.2851 38.9177 48.2851C43.9682 48.2851 48.0624 44.1909 48.0624 39.1404C48.0624 34.0899 43.9682 29.9956 38.9177 29.9956C37.1964 29.9956 35.5862 30.4712 34.2112 31.2981" stroke="white" stroke-width="2.6" stroke-miterlimit="10" stroke-linecap="round" stroke-linejoin="round"/>
</g>
<g id="g1903">
<path id="path1905" d="M36.1967 2.57181C37.0562 2.30425 37.9702 2.16016 38.9177 2.16016C43.9682 2.16016 48.0624 6.25441 48.0624 11.3049C48.0624 16.3555 43.9682 20.4497 38.9177 20.4497C37.1964 20.4497 35.5862 19.9742 34.2113 19.1473" stroke="white" stroke-width="2.6" stroke-miterlimit="10" stroke-linecap="round" stroke-linejoin="round"/>
</g>
<g id="g1907">
<path id="path1909" d="M31.0753 16.0111C30.2484 14.6361 29.7729 13.0261 29.7729 11.3048C29.7729 10.238 29.9556 9.2139 30.2914 8.26196" stroke="white" stroke-width="2.6" stroke-miterlimit="10" stroke-linecap="round" stroke-linejoin="round"/>
</g>
<g id="g1911">
<path id="path1913" d="M12.866 9.52105L14.8969 7.49023" stroke="white" stroke-width="2.6" stroke-miterlimit="10" stroke-linecap="round" stroke-linejoin="round"/>
</g>
<g id="g1915">
<path id="path1917" d="M9.29838 13.0886L7.26756 15.1195" stroke="white" stroke-width="2.6" stroke-miterlimit="10" stroke-linecap="round" stroke-linejoin="round"/>
</g>
<g id="g1919">
<path id="path1921" d="M27.9999 25.2227C27.9999 26.8795 26.6568 28.2227 24.9999 28.2227C23.3431 28.2227 21.9999 26.8795 21.9999 25.2227C21.9999 23.5658 23.3431 22.2227 24.9999 22.2227C26.6568 22.2227 27.9999 23.5658 27.9999 25.2227Z" stroke="white" stroke-width="2.6" stroke-miterlimit="10" stroke-linecap="round" stroke-linejoin="round"/>
</g>
<g id="g1923">
<path id="path1925" d="M12.866 37.3566C13.8512 38.3417 13.8512 39.939 12.866 40.9242C11.8809 41.9094 10.2836 41.9094 9.29835 40.9242C8.31322 39.939 8.31322 38.3417 9.29835 37.3566C10.2836 36.3714 11.8809 36.3714 12.866 37.3566Z" stroke="white" stroke-width="2.6" stroke-miterlimit="10" stroke-linecap="round" stroke-linejoin="round"/>
</g>
<g id="g1927">
<path id="path1929" d="M37.1339 37.3566C36.1487 38.3417 36.1487 39.939 37.1339 40.9242C38.119 41.9094 39.7163 41.9094 40.7015 40.9242C41.6867 39.939 41.6867 38.3417 40.7015 37.3566C39.7163 36.3714 38.119 36.3714 37.1339 37.3566Z" stroke="white" stroke-width="2.6" stroke-miterlimit="10" stroke-linecap="round" stroke-linejoin="round"/>
</g>
<g id="g1931">
<path id="path1933" d="M37.1339 13.0887C36.1487 12.1036 36.1487 10.5063 37.1339 9.52107C38.119 8.53595 39.7163 8.53595 40.7015 9.52107C41.6867 10.5063 41.6867 12.1036 40.7015 13.0887C39.7163 14.0739 38.119 14.0739 37.1339 13.0887Z" stroke="white" stroke-width="2.6" stroke-miterlimit="10" stroke-linecap="round" stroke-linejoin="round"/>
</g>
<g id="g1935">
<path id="path1937" d="M12.866 13.0887C13.8512 12.1036 13.8512 10.5063 12.866 9.52107C11.8809 8.53595 10.2836 8.53595 9.29835 9.52107C8.31322 10.5063 8.31322 12.1036 9.29835 13.0887C10.2836 14.0739 11.8809 14.0739 12.866 13.0887Z" stroke="white" stroke-width="2.6" stroke-miterlimit="10" stroke-linecap="round" stroke-linejoin="round"/>
</g>
<g id="g1939">
<path id="path1941" d="M36.3898 39.2641L33.2506 36.1249C31.0767 33.951 28.0743 32.7741 24.9999 32.791C21.9257 32.7741 18.9232 33.951 16.7494 36.1249L13.6101 39.2641" stroke="white" stroke-width="2.6" stroke-miterlimit="10" stroke-linecap="round" stroke-linejoin="round"/>
</g>
<g id="g1943">
<path id="path1945" d="M39.0415 13.8328L35.9023 16.972C33.7283 19.1459 32.5514 22.1483 32.5683 25.2226C32.5514 28.2969 33.7283 31.2993 35.9023 33.4732L39.0415 36.6124" stroke="white" stroke-width="2.6" stroke-miterlimit="10" stroke-linecap="round" stroke-linejoin="round"/>
</g>
<g id="g1947">
<path id="path1949" d="M13.6101 11.1812L16.7493 14.3204C18.9233 16.4942 21.9256 17.6712 25 17.6543C28.0742 17.6712 31.0767 16.4942 33.2505 14.3204L36.3898 11.1812" stroke="white" stroke-width="2.6" stroke-miterlimit="10" stroke-linecap="round" stroke-linejoin="round"/>
</g>
<g id="g1951">
<path id="path1953" d="M10.9585 36.6124L14.0977 33.4732C16.2715 31.2993 17.4485 28.2969 17.4316 25.2225C17.4485 22.1483 16.2715 19.1459 14.0977 16.972L10.9585 13.8328" stroke="white" stroke-width="2.6" stroke-miterlimit="10" stroke-linecap="round" stroke-linejoin="round"/>
</g>
</g>
</svg>
