<svg width="49" height="49" viewBox="0 0 49 49" fill="none" xmlns="http://www.w3.org/2000/svg">
<g id="003-coins" clip-path="url(#clip0_6053_125593)">
<g id="Group">
<path id="Vector" d="M44.093 26.9464V21.0131C44.093 19.0497 42.7631 17.2786 40.3481 16.0261C35.793 13.6357 28.0396 13.7082 23.7024 16.5714V8.43493C23.7024 6.47146 22.3725 4.70042 19.9577 3.44798C15.782 1.18926 8.42053 1.18917 4.24483 3.44798C1.82985 4.70032 0.5 6.47136 0.5 8.43493V40.0037C0.5 41.9672 1.82985 43.7383 4.24483 44.9908C8.42053 47.2496 15.782 47.2495 19.9577 44.9908C20.912 44.4958 21.6961 43.9195 22.2964 43.2827C25.4139 46.3978 30.8576 47.0966 35.4188 46.4904C46.9537 48.5711 53.3013 33.9808 44.093 26.9464ZM20.8905 14.7486C20.8905 16.581 17.1316 18.6303 12.1012 18.6303C7.0709 18.6303 3.31192 16.581 3.31192 14.7486V12.8765C7.64744 15.7395 15.4039 15.8124 19.9577 13.4218C20.2896 13.2496 20.6002 13.0674 20.8905 12.8765V14.7486ZM4.24483 19.7357C8.42053 21.9945 15.7819 21.9944 19.9577 19.7357C20.2896 19.5635 20.6002 19.3813 20.8905 19.1904V21.0624C20.8905 22.8947 17.1316 24.944 12.1012 24.944C7.0709 24.944 3.31192 22.8948 3.31192 21.0624V19.1903C3.60221 19.3812 3.91293 19.5635 4.24483 19.7357ZM4.24483 26.0494C8.80033 28.4399 16.5531 28.3672 20.8905 25.5041V27.3761C20.8905 29.2085 17.1316 31.2578 12.1012 31.2578C7.0709 31.2578 3.31192 29.2085 3.31192 27.3762V25.5042C3.60221 25.695 3.91293 25.8773 4.24483 26.0494ZM3.31192 31.8179C7.64744 34.6809 15.4039 34.7538 19.9577 32.3632C20.2896 32.191 20.6002 32.0088 20.8905 31.8179V33.6899C20.8905 35.5223 17.1316 37.5716 12.1012 37.5716C7.0709 37.5716 3.31192 35.5223 3.31192 33.6899V31.8179ZM23.7024 31.7859C24.5822 32.3726 25.6464 32.8707 26.8597 33.2544C26.6217 34.2719 26.5284 35.3831 26.6013 36.4519C24.7061 35.6123 23.7024 34.5081 23.7024 33.6899V31.7859ZM27.8459 30.6181C25.1217 29.7975 23.7024 28.4258 23.7024 27.3762V25.4548C23.9927 25.6458 24.3034 25.828 24.6353 26.0002C26.2005 26.812 28.1298 27.3536 30.2158 27.5825C29.2585 28.4437 28.4534 29.4709 27.8459 30.6181ZM32.4917 17.1316C37.5222 17.1316 41.281 19.1809 41.281 21.0132C41.281 22.8455 37.5221 24.8948 32.4917 24.8948C27.4612 24.8948 23.7024 22.8455 23.7024 21.0132C23.7024 19.1808 27.4613 17.1316 32.4917 17.1316ZM12.1012 4.55326C17.1316 4.55326 20.8904 6.60259 20.8904 8.43484C20.8904 10.2672 17.1315 12.3165 12.1012 12.3165C7.07081 12.3165 3.31192 10.2672 3.31192 8.43493C3.31192 6.60259 7.07081 4.55326 12.1012 4.55326ZM12.1012 43.8853C7.07081 43.8853 3.31192 41.8361 3.31192 40.0037V38.1317C7.64744 40.9947 15.4039 41.0676 19.9577 38.677C20.2896 38.5048 20.6002 38.3226 20.8905 38.1317V40.0037C20.8905 41.8361 17.1316 43.8853 12.1012 43.8853ZM23.7024 40.0037V38.0566C24.6928 38.7231 25.9142 39.2846 27.3197 39.6987C27.918 41.2357 28.8536 42.6054 30.0349 43.7168C26.2855 43.1907 23.7024 41.5226 23.7024 40.0037ZM37.5415 43.8853C33.0461 43.8853 29.389 40.2281 29.389 35.7329C29.8367 24.9177 45.2476 24.9207 45.6938 35.733C45.6939 40.2282 42.0367 43.8853 37.5415 43.8853Z" fill="#2185FB"/>
<path id="Vector_2" d="M37.5415 30.2505C34.5184 30.2505 32.059 32.7099 32.059 35.733C32.3601 43.0063 42.724 43.0042 43.024 35.733C43.0241 32.7099 40.5646 30.2505 37.5415 30.2505ZM37.5415 38.4036C36.0689 38.4036 34.8709 37.2055 34.8709 35.733C35.0176 32.1901 40.0659 32.1911 40.212 35.733C40.2121 37.2055 39.0141 38.4036 37.5415 38.4036Z" fill="#2185FB"/>
</g>
</g>
<defs>
<clipPath id="clip0_6053_125593">
<rect width="48" height="48" fill="white" transform="translate(0.5 0.222656)"/>
</clipPath>
</defs>
</svg>
