<svg width="48" height="49" viewBox="0 0 48 49" fill="none" xmlns="http://www.w3.org/2000/svg">
<g id="004-brain" clip-path="url(#clip0_6053_125594)">
<path id="Vector" d="M47.9999 24.1824C47.9999 20.9959 46.4404 18.065 43.8619 16.2832C44.0455 15.535 44.1377 14.7661 44.1374 13.9857C44.1341 8.76937 39.889 4.46356 34.6745 4.38732C33.8103 4.37495 32.9632 4.47519 32.1404 4.68655C28.4865 -1.22678 19.6331 -1.25604 15.9266 4.62185C15.1996 4.45756 14.4537 4.37776 13.6983 4.38695C7.64144 4.37663 2.97471 10.3717 4.46258 16.2375C3.31623 16.9662 2.33312 17.9324 1.58023 19.0779C-2.64249 25.468 2.11614 33.9745 9.71914 33.9525H21.5917C22.2273 38.3372 25.7817 41.7893 30.2145 42.2682V43.9699C30.2145 46.3091 32.1176 48.2123 34.4568 48.2123H37.2693C38.0461 48.2123 38.6759 47.5826 38.6759 46.8058V42.173C41.9862 41.4853 44.4815 38.5462 44.4815 35.0349V31.7102C44.717 31.5141 44.9447 31.3064 45.1637 31.0865C47.0039 29.2383 48.0112 26.7843 47.9999 24.1824ZM4.78366 29.0675C1.46442 25.8231 2.56183 20.0974 6.73861 18.1908C7.40636 17.8784 7.71955 17.1035 7.45652 16.4148C7.16011 15.6389 7.01036 14.8208 7.01139 13.9833C7.01599 10.2827 10.0293 7.23976 13.7286 7.19991C14.5511 7.19081 15.3602 7.32782 16.1259 7.6066C16.8071 7.85444 17.5649 7.54405 17.8765 6.88971C20.344 1.71511 27.795 1.76238 30.1875 6.97355C30.5012 7.65592 31.2953 7.97137 31.9919 7.69043C32.8309 7.35191 33.7204 7.18697 34.6333 7.20019C39.2547 7.20676 42.5938 12.1203 40.8794 16.4138C40.6251 17.0798 40.9092 17.8306 41.5407 18.1614C43.7896 19.3396 45.1867 21.6466 45.1867 24.1884C45.1947 26.0427 44.4786 27.7875 43.1703 29.1015C41.8619 30.4155 40.1203 31.1391 38.2659 31.1391H22.9572C22.9168 31.1356 22.876 31.1356 22.8356 31.1391H22.2834C23.5357 29.8285 24.4007 28.1448 24.6927 26.2738H31.2582C38.0227 25.9932 38.0189 16.356 31.2582 16.0773C30.4814 16.0773 29.8516 16.707 29.8516 17.4838C29.8516 18.2606 30.4814 18.8904 31.2582 18.8904C32.5183 18.8904 33.5433 19.9155 33.5433 21.1755C33.5433 22.4355 32.5182 23.4607 31.2582 23.4607H24.6927C24.0146 19.1167 20.2478 15.7822 15.7166 15.7822C14.9398 15.7822 14.31 16.4119 14.31 17.1887C14.31 17.9655 14.9398 18.5953 15.7166 18.5953C24.0374 18.9396 24.0344 30.7963 15.7166 31.1391H9.71914C7.85674 31.1392 6.10387 30.4035 4.78366 29.0675ZM34.4569 45.3991C33.6689 45.3991 33.0278 44.758 33.0278 43.9698V42.3254H35.8629V45.399H34.4569V45.3991ZM41.6684 35.0349C41.6684 37.5037 39.6599 39.5123 37.1911 39.5123H31.2724C27.9122 39.5123 25.1 37.122 24.4463 33.9524H38.266C39.4466 33.9524 40.5946 33.7431 41.6684 33.3433V35.0349Z" fill="#2185FB"/>
</g>
<defs>
<clipPath id="clip0_6053_125594">
<rect width="48" height="48" fill="white" transform="translate(0 0.222656)"/>
</clipPath>
</defs>
</svg>
