<svg width="48" height="49" viewBox="0 0 48 49" fill="none" xmlns="http://www.w3.org/2000/svg">
<g id="005-ecommerce">
<g id="Group">
<path id="Vector" d="M46.5937 6.0209H36.9027V3.56109C36.9027 2.78443 36.273 2.15479 35.4964 2.15479H12.5037C11.7271 2.15479 11.0974 2.78443 11.0974 3.56109V6.0208H1.4063C0.629648 6.0208 0 6.65045 0 7.42711V41.9224C0 44.3282 1.95729 46.2855 4.3631 46.2855H19.3271C19.3877 46.2888 19.4486 46.2906 19.51 46.2906H28.4901C28.5515 46.2906 28.6124 46.2888 28.673 46.2855H43.6369C46.0427 46.2855 48 44.3282 48 41.9224V7.4272C48 6.65055 47.3704 6.0209 46.5937 6.0209ZM34.0901 4.96739V24.7994H31.105V9.17101C31.105 8.39436 30.4753 7.76471 29.6987 7.76471H18.3014C17.5248 7.76471 16.8951 8.39436 16.8951 9.17101V24.7994H13.9101V7.43264C13.9104 7.42898 13.9104 7.42542 13.9101 7.42176V4.96739H34.0901ZM28.2924 20.5372C25.8858 18.6241 22.1138 18.6245 19.7077 20.5372V10.5773H28.2924V20.5372ZM24 21.9029C25.8791 21.9029 27.479 23.1159 28.061 24.7995H19.9392C20.521 23.1159 22.121 21.9029 24 21.9029ZM11.0974 24.7995H10.4953C8.62944 24.8739 8.63085 27.5385 10.4953 27.6121H36.6466C38.3601 27.5638 38.5639 25.1735 36.9027 24.8239V8.8335H45.1875V38.4053H2.8126V8.8335H11.0974V24.7995ZM29.0523 42.9157C29.0523 43.2014 28.8381 43.4374 28.5619 43.4729H19.438C19.1619 43.4373 18.9476 43.2014 18.9476 42.9157V41.2179H29.0523V42.9157ZM2.8126 41.9224V41.2178H16.1352V42.9156C16.1352 43.1055 16.1518 43.2915 16.1819 43.4728H4.3631C3.50816 43.4729 2.8126 42.7773 2.8126 41.9224ZM43.6369 43.4729H31.8181C31.8484 43.2915 31.8649 43.1056 31.8649 42.9157V41.2179H45.1874V41.9225C45.1874 42.7773 44.4918 43.4729 43.6369 43.4729Z" fill="#2185FB"/>
<path id="Vector_2" d="M24.0001 16.2649C24.7767 16.2649 25.4064 15.6353 25.4064 14.8586C25.3323 12.9932 22.6675 12.9937 22.5938 14.8586C22.5938 15.6353 23.2233 16.2649 24.0001 16.2649Z" fill="#2185FB"/>
</g>
</g>
</svg>
